{
  "accessors": [
    {
      "bufferView": 2,
      "componentType": 5126,
      "count": 5012,
      "max": [
        55.23800277709961,
        32.13199996948242,
        155.19960021972656
      ],
      "min": [
        -55.23800277709961,
        -27.81943130493164,
        -0.0010991960298269987
      ],
      "type": "VEC3"
    },
    {
      "bufferView": 2,
      "byteOffset": 60144,
      "componentType": 5126,
      "count": 5012,
      "max": [
        1.0,
        1.0,
        1.0
      ],
      "min": [
        -1.0,
        -1.0,
        -1.0
      ],
      "type": "VEC3"
    },
    {
      "bufferView": 1,
      "componentType": 5126,
      "count": 5012,
      "max": [
        0.9914000034332275,
        0.9922999739646912
      ],
      "min": [
        0.0044999998062849045,
        0.010400000028312206
      ],
      "type": "VEC2"
    },
    {
      "bufferView": 0,
      "componentType": 5125,
      "count": 19500,
      "type": "SCALAR"
    },
    {
      "bufferView": 2,
      "byteOffset": 120288,
      "componentType": 5126,
      "count": 1204,
      "max": [
        63.10660171508789,
        8.954119682312012,
        154.9824981689453
      ],
      "min": [
        -63.10660171508789,
        -10.063400268554688,
        4.309700965881348
      ],
      "type": "VEC3"
    },
    {
      "bufferView": 2,
      "byteOffset": 134736,
      "componentType": 5126,
      "count": 1204,
      "max": [
        0.9999357461929321,
        0.9991973042488098,
        0.775130569934845
      ],
      "min": [
        -0.9999357461929321,
        -0.9999339580535889,
        -0.9750056266784668
      ],
      "type": "VEC3"
    },
    {
      "bufferView": 1,
      "byteOffset": 40096,
      "componentType": 5126,
      "count": 1204,
      "max": [
        0.9898999929428101,
        0.9959999918937683
      ],
      "min": [
        0.1761000007390976,
        0.6448000073432922
      ],
      "type": "VEC2"
    },
    {
      "bufferView": 0,
      "byteOffset": 78000,
      "componentType": 5125,
      "count": 5298,
      "type": "SCALAR"
    },
    {
      "bufferView": 2,
      "byteOffset": 149184,
      "componentType": 5126,
      "count": 452,
      "max": [
        7.577259063720703,
        2.1752727031707764,
        162.73330688476563
      ],
      "min": [
        -7.577259063720703,
        -8.131570816040039,
        148.25930786132813
      ],
      "type": "VEC3"
    },
    {
      "bufferView": 2,
      "byteOffset": 154608,
      "componentType": 5126,
      "count": 452,
      "max": [
        0.99936443567276,
        0.5521635413169861,
        0.9702851176261902
      ],
      "min": [
        -0.99936443567276,
        -0.9977872371673584,
        -0.994978129863739
      ],
      "type": "VEC3"
    },
    {
      "bufferView": 1,
      "byteOffset": 49728,
      "componentType": 5126,
      "count": 452,
      "max": [
        0.36582449078559875,
        0.9981012940406799
      ],
      "min": [
        0.0006748425075784326,
        0.8542444109916687
      ],
      "type": "VEC2"
    },
    {
      "bufferView": 0,
      "byteOffset": 99192,
      "componentType": 5125,
      "count": 2088,
      "type": "SCALAR"
    },
    {
      "bufferView": 2,
      "byteOffset": 160032,
      "componentType": 5126,
      "count": 20,
      "max": [
        6.656567573547363,
        -4.535717964172363,
        156.85940551757813
      ],
      "min": [
        -6.656567096710205,
        -6.997407913208008,
        155.83590698242188
      ],
      "type": "VEC3"
    },
    {
      "bufferView": 2,
      "byteOffset": 160272,
      "componentType": 5126,
      "count": 20,
      "max": [
        0.7359707951545715,
        -0.6768413782119751,
        -0.01525921281427145
      ],
      "min": [
        -0.7359707951545715,
        -0.9808529019355774,
        -0.48832324147224426
      ],
      "type": "VEC3"
    },
    {
      "bufferView": 1,
      "byteOffset": 53344,
      "componentType": 5126,
      "count": 20,
      "max": [
        0.1528335064649582,
        0.9958881139755249
      ],
      "min": [
        0.006642112974077463,
        0.002612446900457144
      ],
      "type": "VEC2"
    },
    {
      "bufferView": 0,
      "byteOffset": 107544,
      "componentType": 5125,
      "count": 48,
      "type": "SCALAR"
    },
    {
      "bufferView": 2,
      "byteOffset": 160512,
      "componentType": 5126,
      "count": 96,
      "max": [
        6.417425632476807,
        -3.3943917751312256,
        156.18519592285156
      ],
      "min": [
        -6.413739204406738,
        -5.6207733154296875,
        150.9565887451172
      ],
      "type": "VEC3"
    },
    {
      "bufferView": 2,
      "byteOffset": 161664,
      "componentType": 5126,
      "count": 96,
      "max": [
        0.6498708128929138,
        -0.7486293315887451,
        0.20752361416816711
      ],
      "min": [
        -0.6454408168792725,
        -0.9993689656257629,
        -0.5079255104064941
      ],
      "type": "VEC3"
    },
    {
      "bufferView": 1,
      "byteOffset": 53504,
      "componentType": 5126,
      "count": 96,
      "max": [
        0.9819415807723999,
        0.9296522736549377
      ],
      "min": [
        0.048515450209379196,
        0.024336520582437515
      ],
      "type": "VEC2"
    },
    {
      "bufferView": 0,
      "byteOffset": 107736,
      "componentType": 5125,
      "count": 396,
      "type": "SCALAR"
    },
    {
      "bufferView": 2,
      "byteOffset": 162816,
      "componentType": 5126,
      "count": 324,
      "max": [
        5.885186195373535,
        1.116868019104004,
        150.77049255371094
      ],
      "min": [
        -5.885186195373535,
        -8.131570816040039,
        144.856201171875
      ],
      "type": "VEC3"
    },
    {
      "bufferView": 2,
      "byteOffset": 166704,
      "componentType": 5126,
      "count": 324,
      "max": [
        0.9448440670967102,
        0.8767668604850769,
        0.9783329367637634
      ],
      "min": [
        -0.9448440670967102,
        -0.9993840456008911,
        -0.9949513673782349
      ],
      "type": "VEC3"
    },
    {
      "bufferView": 1,
      "byteOffset": 54272,
      "componentType": 5126,
      "count": 324,
      "max": [
        0.36356881260871887,
        0.8973078727722168
      ],
      "min": [
        0.003257018979638815,
        0.7176445722579956
      ],
      "type": "VEC2"
    },
    {
      "bufferView": 0,
      "byteOffset": 109320,
      "componentType": 5125,
      "count": 1392,
      "type": "SCALAR"
    },
    {
      "bufferView": 2,
      "byteOffset": 170592,
      "componentType": 5126,
      "count": 2753,
      "max": [
        10.684269905090332,
        20.229928970336914,
        167.89959716796875
      ],
      "min": [
        -8.991415977478027,
        -9.613929748535156,
        135.57540893554688
      ],
      "type": "VEC3"
    },
    {
      "bufferView": 2,
      "byteOffset": 203628,
      "componentType": 5126,
      "count": 2753,
      "max": [
        0.9997758269309998,
        0.9999997615814209,
        0.999988317489624
      ],
      "min": [
        -0.9994515776634216,
        -0.9989849925041199,
        -0.9996336698532104
      ],
      "type": "VEC3"
    },
    {
      "bufferView": 1,
      "byteOffset": 56864,
      "componentType": 5126,
      "count": 2753,
      "max": [
        0.9936345219612122,
        0.9831572771072388
      ],
      "min": [
        0.009424099698662758,
        0.010730460286140442
      ],
      "type": "VEC2"
    },
    {
      "bufferView": 0,
      "byteOffset": 114888,
      "componentType": 5125,
      "count": 9135,
      "type": "SCALAR"
    }
  ],
  "asset": {
    "extras": {
      "author": "ilyakardailskiy (https://sketchfab.com/ilyakardailskiy)",
      "license": "CC-BY-4.0 (http://creativecommons.org/licenses/by/4.0/)",
      "source": "https://sketchfab.com/3d-models/valance-21-kings-raid-f79854a92cc74805b915b83303a29f7b",
      "title": "Valance 21 King's raid"
    },
    "generator": "Sketchfab-16.62.0",
    "version": "2.0"
  },
  "bufferViews": [
    {
      "buffer": 0,
      "byteLength": 151428,
      "name": "floatBufferViews",
      "target": 34963
    },
    {
      "buffer": 0,
      "byteLength": 78888,
      "byteOffset": 151428,
      "byteStride": 8,
      "name": "floatBufferViews",
      "target": 34962
    },
    {
      "buffer": 0,
      "byteLength": 236664,
      "byteOffset": 230316,
      "byteStride": 12,
      "name": "floatBufferViews",
      "target": 34962
    }
  ],
  "buffers": [
    {
      "byteLength": 466980,
      "uri": "scene.bin"
    }
  ],
  "images": [
    {
      "uri": "textures/Hero_Valance_Facial_A_1_baseColor.png"
    },
    {
      "uri": "textures/New_Material_baseColor.png"
    },
    {
      "uri": "textures/Hero_Valance_Facial_A_2_baseColor.png"
    }
  ],
  "materials": [
    {
      "doubleSided": true,
      "name": "Hero_Valance_Facial_A_1",
      "pbrMetallicRoughness": {
        "baseColorTexture": {
          "index": 0
        },
        "metallicFactor": 0.0,
        "roughnessFactor": 0.6
      }
    },
    {
      "doubleSided": true,
      "name": "New_Material",
      "pbrMetallicRoughness": {
        "baseColorTexture": {
          "index": 1
        },
        "metallicFactor": 0.0,
        "roughnessFactor": 0.6
      }
    },
    {
      "doubleSided": true,
      "name": "Hero_Valance_Facial_A_2",
      "pbrMetallicRoughness": {
        "baseColorTexture": {
          "index": 2
        },
        "metallicFactor": 0.0,
        "roughnessFactor": 0.6
      }
    }
  ],
  "meshes": [
    {
      "name": "Hero_Valance_Cos21Advance_Body_0_Hero_Valance_Facial_A_1_0",
      "primitives": [
        {
          "attributes": {
            "NORMAL": 1,
            "POSITION": 0,
            "TEXCOORD_0": 2
          },
          "indices": 3,
          "material": 0,
          "mode": 4
        }
      ]
    },
    {
      "name": "Hero_Valance_Cos21Advance_Body_1_Hero_Valance_Facial_A_1_0",
      "primitives": [
        {
          "attributes": {
            "NORMAL": 5,
            "POSITION": 4,
            "TEXCOORD_0": 6
          },
          "indices": 7,
          "material": 0,
          "mode": 4
        }
      ]
    },
    {
      "name": "Hero_Valance_Facial_A_0_Hero_Valance_Facial_A_1_0",
      "primitives": [
        {
          "attributes": {
            "NORMAL": 9,
            "POSITION": 8,
            "TEXCOORD_0": 10
          },
          "indices": 11,
          "material": 0,
          "mode": 4
        }
      ]
    },
    {
      "name": "Hero_Valance_Facial_A_1_New_Material_0",
      "primitives": [
        {
          "attributes": {
            "NORMAL": 13,
            "POSITION": 12,
            "TEXCOORD_0": 14
          },
          "indices": 15,
          "material": 1,
          "mode": 4
        }
      ]
    },
    {
      "name": "Hero_Valance_Facial_A_2_Hero_Valance_Facial_A_2_0",
      "primitives": [
        {
          "attributes": {
            "NORMAL": 17,
            "POSITION": 16,
            "TEXCOORD_0": 18
          },
          "indices": 19,
          "material": 2,
          "mode": 4
        }
      ]
    },
    {
      "name": "Hero_Valance_Facial_B_0_Hero_Valance_Facial_A_1_0",
      "primitives": [
        {
          "attributes": {
            "NORMAL": 21,
            "POSITION": 20,
            "TEXCOORD_0": 22
          },
          "indices": 23,
          "material": 0,
          "mode": 4
        }
      ]
    },
    {
      "name": "Hero_Valance_Hair_01_0_New_Material_0",
      "primitives": [
        {
          "attributes": {
            "NORMAL": 25,
            "POSITION": 24,
            "TEXCOORD_0": 26
          },
          "indices": 27,
          "material": 1,
          "mode": 4
        }
      ]
    }
  ],
  "nodes": [
    {
      "children": [
        1
      ],
      "matrix": [
        1.0,
        0.0,
        0.0,
        0.0,
        0.0,
        2.220446049250313e-16,
        -1.0,
        0.0,
        0.0,
        1.0,
        2.220446049250313e-16,
        0.0,
        0.0,
        0.0,
        0.0,
        1.0
      ],
      "name": "Sketchfab_model"
    },
    {
      "children": [
        2
      ],
      "matrix": [
        0.009999999776482582,
        0.0,
        0.0,
        0.0,
        0.0,
        0.0,
        0.009999999776482582,
        0.0,
        0.0,
        -0.009999999776482582,
        0.0,
        0.0,
        0.0,
        0.0,
        0.0,
        1.0
      ],
      "name": "Hero_Valance_Cos21Advance_Body.fbx"
    },
    {
      "children": [
        3
      ],
      "name": "RootNode"
    },
    {
      "children": [
        4,
        6,
        8,
        15,
        18
      ],
      "matrix": [
        1.131684764662064,
        0.018162550869323463,
        0.09340860411032846,
        0.0,
        0.09398865201155705,
        -0.03911707458765379,
        -1.1311062902808502,
        0.0,
        -0.014872085106145783,
        1.1348593299357146,
        -0.04048265373535173,
        0.0,
        0.0,
        0.0,
        0.0,
        1.0
      ],
      "name": "Hero_Valance_Cos21Advance_Body__1_"
    },
    {
      "children": [
        5
      ],
      "matrix": [
        1.0,
        0.0,
        -4.336808689942017e-19,
        0.0,
        3.0092655381050547e-36,
        1.0,
        6.938893903907227e-18,
        0.0,
        4.336808689942017e-19,
        -6.938893903907227e-18,
        1.0,
        0.0,
        0.0,
        0.0,
        0.0,
        1.0
      ],
      "name": "Hero_Valance_Cos21Advance_Body_0"
    },
    {
      "mesh": 0,
      "name": "Hero_Valance_Cos21Advance_Body_0_Hero_Valance_Facial_A_1_0"
    },
    {
      "children": [
        7
      ],
      "matrix": [
        1.0,
        0.0,
        -4.336808689942017e-19,
        0.0,
        3.0092655381050547e-36,
        1.0,
        6.938893903907227e-18,
        0.0,
        4.336808689942017e-19,
        -6.938893903907227e-18,
        1.0,
        0.0,
        0.0,
        0.0,
        0.0,
        1.0
      ],
      "name": "Hero_Valance_Cos21Advance_Body_1"
    },
    {
      "mesh": 1,
      "name": "Hero_Valance_Cos21Advance_Body_1_Hero_Valance_Facial_A_1_0"
    },
    {
      "children": [
        9,
        11,
        13
      ],
      "matrix": [
        0.9987682888850586,
        -0.030698333467918573,
        0.038980988185327255,
        0.0,
        0.02945887804857556,
        0.9990542027912416,
        0.03198240749655812,
        0.0,
        -0.03992592668594313,
        -0.030794678232597503,
        0.9987279950871606,
        0.0,
        6.223113536834717,
        5.228893280029297,
        -0.024406248703598976,
        1.0
      ],
      "name": "Hero_Valance_Facial_A__2_"
    },
    {
      "children": [
        10
      ],
      "matrix": [
        1.0,
        -2.775557561562892e-17,
        1.0842021724855046e-18,
        0.0,
        2.775557561562892e-17,
        1.0,
        -1.7347234759768075e-18,
        0.0,
        -1.0842021724855046e-18,
        1.7347234759768075e-18,
        1.0,
        0.0,
        0.0,
        0.0,
        0.0,
        1.0
      ],
      "name": "Hero_Valance_Facial_A_0"
    },
    {
      "mesh": 2,
      "name": "Hero_Valance_Facial_A_0_Hero_Valance_Facial_A_1_0"
    },
    {
      "children": [
        12
      ],
      "matrix": [
        1.0,
        -2.775557561562892e-17,
        1.0842021724855046e-18,
        0.0,
        2.775557561562892e-17,
        1.0,
        -1.7347234759768075e-18,
        0.0,
        -1.0842021724855046e-18,
        1.7347234759768075e-18,
        1.0,
        0.0,
        0.0,
        0.0,
        0.0,
        1.0
      ],
      "name": "Hero_Valance_Facial_A_1"
    },
    {
      "mesh": 3,
      "name": "Hero_Valance_Facial_A_1_New_Material_0"
    },
    {
      "children": [
        14
      ],
      "matrix": [
        1.0,
        -2.775557561562892e-17,
        1.0842021724855046e-18,
        0.0,
        2.775557561562892e-17,
        1.0,
        -1.7347234759768075e-18,
        0.0,
        -1.0842021724855046e-18,
        1.7347234759768075e-18,
        1.0,
        0.0,
        0.0,
        0.0,
        0.0,
        1.0
      ],
      "name": "Hero_Valance_Facial_A_2"
    },
    {
      "mesh": 4,
      "name": "Hero_Valance_Facial_A_2_Hero_Valance_Facial_A_2_0"
    },
    {
      "children": [
        16
      ],
      "matrix": [
        0.9989739115101921,
        -0.04116561387879283,
        0.018881640712849167,
        0.0,
        0.04027700287190512,
        0.9981635441117214,
        0.045247124173633246,
        0.0,
        -0.02070959105543927,
        -0.04444020072310406,
        0.9987973675365823,
        0.0,
        3.3797354698181152,
        7.223846912384033,
        0.1782926768064499,
        1.0
      ],
      "name": "Hero_Valance_Facial_B__2_"
    },
    {
      "children": [
        17
      ],
      "matrix": [
        1.0,
        2.7755575615628926e-17,
        1.4094628242311561e-18,
        0.0,
        -2.7755575615628926e-17,
        1.0,
        8.67361737988404e-19,
        0.0,
        -1.4094628242311561e-18,
        -8.67361737988404e-19,
        1.0,
        0.0,
        0.0,
        0.0,
        0.0,
        1.0
      ],
      "name": "Hero_Valance_Facial_B_0"
    },
    {
      "mesh": 5,
      "name": "Hero_Valance_Facial_B_0_Hero_Valance_Facial_A_1_0"
    },
    {
      "children": [
        19
      ],
      "matrix": [
        0.9997929087289411,
        0.007707217886617226,
        0.01883450152702579,
        0.0,
        -0.0054984646893323896,
        0.9933932046881997,
        -0.11462856435186088,
        0.0,
        -0.01959353315212686,
        0.11450126493518205,
        0.9932298594921821,
        0.0,
        3.2890570163726807,
        -18.398408889770508,
        -0.2050195187330246,
        1.0
      ],
      "name": "Hero_Valance_Hair_01"
    },
    {
      "children": [
        20
      ],
      "matrix": [
        1.0,
        1.387778780781446e-17,
        3.469446951953615e-18,
        0.0,
        -1.387778780781446e-17,
        1.0,
        -5.551115123125783e-17,
        0.0,
        -3.4694469519536165e-18,
        5.551115123125783e-17,
        1.0,
        0.0,
        0.0,
        0.0,
        0.0,
        1.0
      ],
      "name": "Hero_Valance_Hair_01_0"
    },
    {
      "mesh": 6,
      "name": "Hero_Valance_Hair_01_0_New_Material_0"
    }
  ],
  "samplers": [
    {
      "magFilter": 9729,
      "minFilter": 9987,
      "wrapS": 10497,
      "wrapT": 10497
    }
  ],
  "scene": 0,
  "scenes": [
    {
      "name": "Sketchfab_Scene",
      "nodes": [
        0
      ]
    }
  ],
  "textures": [
    {
      "sampler": 0,
      "source": 0
    },
    {
      "sampler": 0,
      "source": 1
    },
    {
      "sampler": 0,
      "source": 2
    }
  ]
}
